<?xml version="1.0" encoding="utf-8"?>
<!-- Generator: Adobe Illustrator 27.2.0, SVG Export Plug-In . SVG Version: 6.00 Build 0)  -->
<svg version="1.1" id="Layer_1" xmlns="http://www.w3.org/2000/svg" xmlns:xlink="http://www.w3.org/1999/xlink" x="0px" y="0px"
	 viewBox="0 0 272.71 152.92" style="enable-background:new 0 0 272.71 152.92;" xml:space="preserve">
<style type="text/css">
	.st0{fill:#0B0A0A;}
	.st1{fill:#080808;}
</style>
<g>
	<path class="st0" d="M227.15,17.67c-0.25,1.6-1.88,2.37-3.83,3.18c-6.48,2.66-12.82,5.67-19.3,8.34
		c-20.95,8.6-39.82,20.82-58.68,33.06c-5.51,3.57-11.54,6.04-17.6,8.52c-3.95,1.61-5.95-1.03-6.93-3.58
		c-0.93-2.4,2.86-3.24,3.82-3.08c12.56,2.13,20.51-6.71,29.36-12.49c21.96-14.34,45.67-25.14,69.5-35.79
		C226.64,14.4,227.44,14.76,227.15,17.67z"/>
	<path class="st0" d="M82.89,70.36c-0.52,3.01-2.21,3.43-4.28,3.99c-10.64,2.91-19.26,9.26-26.96,16.78
		c-14.37,14.05-28.85,28.02-42.08,43.18c-1.14,1.31-2.26,2.84-3.73,3.59c-1.7,0.87-4.18,1.41-5.44-0.39
		c-0.97-1.39-0.05-3.24,1.43-4.55c5.18-4.56,10.35-9.12,15.4-13.82c14.89-13.87,28.13-29.46,44.12-42.2
		C67.55,72.01,73.98,67.76,82.89,70.36z"/>
	<path class="st1" d="M196.86,62.29c0.86,3.62-1.02,4.97-2.55,6.6c-14.55,15.42-31.09,28.55-47.68,41.67
		c-5.78,4.57-10.45,10.53-15.57,15.92c-1.44,1.52-2.15,5.06-4.95,3.11c-2.81-1.96-0.76-4.27,1.09-6.12
		c10.81-10.82,21.38-21.94,34.05-30.7c12.29-8.5,24.52-16.98,31.42-30.87c0.65-1.31,1.52-2.84,3.26-2.39
		C198.02,60.02,196.77,61.99,196.86,62.29z"/>
	<path class="st1" d="M252.17,62.04c-17.77,11.47-34.52,22.44-51.46,33.11c-3.2,2.02-7.95,7.01-10.47,3.31
		c-2.47-3.63,4.16-5.13,7.07-7.15c14.26-9.92,29.79-17.92,43.69-28.42C243.8,60.79,247.47,59.65,252.17,62.04z"/>
	<path class="st0" d="M266.85,62.29c-11.41,7.55-21.21,13.95-30.89,20.54c-1.72,1.17-2.98,2.94-4.82,0.51
		c-2.26-2.99,0.49-3.57,2.33-4.69c10.47-6.42,20.91-12.89,31.37-19.35c2.14-1.32,4.78-2.57,6.74-0.92c1.67,1.4,1.28,4.35,0.21,6.24
		c-2.03,3.58,0.34,7.92-2.4,11.3c-1.07,1.32-1.77,3.36-3.88,2.54c-1.68-0.66-2.68-2.36-2.18-4.28
		C264.19,70.84,265.26,67.57,266.85,62.29z"/>
	<path class="st0" d="M106.49,68.27c6.69-6.81,10.25-17.35,21.93-18.23c0.54,0.62,1.07,1.24,1.61,1.86
		c-7.3,6.07-14.6,12.14-21.9,18.22C107.57,69.5,107.03,68.89,106.49,68.27z"/>
	<path class="st1" d="M219.68,62.83c0.38,1.71-0.86,2.7-1.94,3.66c-4.19,3.73-8.48,7.35-12.65,11.11c-1.34,1.21-2.3,1.32-3.77,0.11
		c-1.97-1.62,0.07-3.25,0.49-3.55c5.15-3.76,9.22-8.46,12.9-13.58c0.7-0.97,1.82-1.81,3.13-0.8
		C218.79,60.53,219.79,61.34,219.68,62.83z"/>
	<path class="st1" d="M106.91,55.23c0.08,3.32-8.24,8.41-10.91,7.02c-1.46-0.75-1.5-2.31-0.96-3.15c2.39-3.74,6.47-4.78,10.48-5.64
		C106.64,53.22,107.04,54.45,106.91,55.23z"/>
</g>
</svg>
