<?xml version="1.0" encoding="UTF-8"?><svg id="Layer_1" xmlns="http://www.w3.org/2000/svg" viewBox="0 0 555.02 204.19"><defs><style>.cls-1{fill:#231f20;}.cls-2{fill:#0b0a0a;}.cls-3{fill:#080808;}</style></defs><g><path class="cls-2" d="m373.76,4.83c-.42,2.63-3.09,3.91-6.31,5.23-10.67,4.38-21.1,9.34-31.76,13.72-34.47,14.15-65.52,34.26-96.56,54.39-9.07,5.88-19,9.95-28.96,14.01-6.5,2.65-9.79-1.7-11.4-5.88-1.52-3.95,4.71-5.33,6.28-5.06,20.67,3.5,33.75-11.05,48.31-20.55,36.14-23.59,75.14-41.37,114.36-58.9,5.22-2.33,6.54-1.74,6.05,3.05Z"/><path class="cls-2" d="m136.39,91.53c-.86,4.95-3.64,5.64-7.05,6.57-17.51,4.79-31.69,15.23-44.36,27.62-23.65,23.12-47.47,46.1-69.24,71.05-1.87,2.15-3.71,4.67-6.14,5.91-2.79,1.43-6.88,2.32-8.95-.65-1.6-2.3-.08-5.33,2.36-7.48,8.52-7.5,17.03-15,25.33-22.74,24.51-22.83,46.28-48.47,72.59-69.44,10.2-8.13,20.78-15.13,35.45-10.85Z"/><path class="cls-3" d="m323.94,78.24c1.41,5.95-1.67,8.18-4.2,10.85-23.94,25.37-51.16,46.97-78.46,68.57-9.51,7.52-17.2,17.33-25.61,26.19-2.37,2.5-3.54,8.33-8.14,5.12-4.62-3.22-1.24-7.02,1.8-10.07,17.79-17.81,35.18-36.1,56.03-50.51,20.23-13.98,40.35-27.95,51.7-50.8,1.07-2.16,2.5-4.67,5.37-3.94,3.42.86,1.36,4.1,1.51,4.59Z"/><path class="cls-3" d="m414.95,77.84c-29.23,18.88-56.8,36.93-84.68,54.48-5.27,3.32-13.08,11.54-17.22,5.45-4.07-5.98,6.85-8.44,11.63-11.76,23.47-16.32,49.02-29.49,71.9-46.77,4.59-3.46,10.63-5.34,18.37-1.4Z"/><path class="cls-2" d="m439.1,78.25c-18.77,12.43-34.91,22.96-50.83,33.8-2.83,1.92-4.9,4.84-7.93.83-3.72-4.92.8-5.87,3.83-7.72,17.24-10.56,34.42-21.22,51.61-31.84,3.52-2.17,7.86-4.22,11.1-1.52,2.75,2.3,2.11,7.16.35,10.27-3.34,5.89.56,13.04-3.95,18.59-1.77,2.17-2.92,5.54-6.38,4.18-2.77-1.09-4.42-3.88-3.59-7.04,1.42-5.47,3.2-10.85,5.81-19.55Z"/><path class="cls-2" d="m175.22,88.09c11.01-11.21,16.87-28.55,36.08-30,.88,1.02,1.76,2.04,2.64,3.06-12.01,9.99-24.02,19.98-36.04,29.98-.89-1.01-1.79-2.03-2.68-3.04Z"/><path class="cls-3" d="m361.47,79.14c.62,2.81-1.41,4.45-3.19,6.03-6.9,6.14-13.96,12.1-20.82,18.27-2.21,1.99-3.78,2.17-6.2.18-3.25-2.66.12-5.34.8-5.84,8.48-6.18,15.17-13.93,21.22-22.34,1.15-1.6,2.99-2.98,5.15-1.31,1.59,1.23,3.23,2.55,3.05,5.01Z"/><path class="cls-3" d="m175.92,66.63c.13,5.46-13.56,13.83-17.95,11.56-2.4-1.24-2.46-3.8-1.58-5.19,3.93-6.15,10.64-7.87,17.25-9.29,1.83-.39,2.48,1.63,2.28,2.92Z"/></g><g><path class="cls-1" d="m413.85,13.73h-6.87v-3.98h10.99v30.05h-4.13V13.73Z"/><path class="cls-1" d="m438.52,13.78h-7.1v-4.03h11.23v25.06h-4.13V13.78Z"/><path class="cls-1" d="m463.62,22.56c1.2-1.68,2.74-3.65,2.74-7.25v-1.58h-8.83v-3.98h12.67c.24,1.1.29,2.11.29,3.55,0,6.1-1.78,9.5-4.46,12.1h-2.4v-2.83Z"/><path class="cls-1" d="m480.86,30.82h9.6c2.59,0,4.56-1.97,4.56-4.56v-12.48h-13.44v-4.03h15.65c1.1,0,1.92.86,1.92,1.92v14.74c0,4.42-3.98,8.4-8.4,8.4h-9.89v-3.98Z"/><path class="cls-1" d="m520.17,16.42c0-1.54-1.1-2.64-2.64-2.64h-10.27v-4.03h11.81c3.02,0,5.28,2.26,5.28,5.33v19.73h-4.18v-18.39Z"/><path class="cls-1" d="m545.22,23.38l5.47,8.59-.05,2.83h-3.12l-8.26-12.91c-1.63,1.73-2.35,4.03-2.35,7.49v5.42h-4.13v-4.46c0-5.57,1.44-9.07,4.61-11.38l-4.03-6.34.05-2.88h3.07l6.96,10.9c2.98-1.49,3.79-2.88,3.79-6.24v-4.66h4.13v3.07c0,5.9-1.34,8.3-6.14,10.56Z"/></g></svg>